# xmcd
#
# Track frame offsets:
#	150
#	9563
#	22016
#	35845
#	47937
#	66858
#	78128
#	93722
#	108476
#	121954
#	137251
#
# Disc length: 2046 seconds
#
# Revision: 1
# Processed by: cddbd v1.5.1PL2 Copyright (c) Steve Scherf et al.
# Submitted via: audiograbber 1.83.01
#
DISCID=9007fc0b
DTITLE=Dorene - Dorene
DYEAR=1900
DGENRE=Country
TTITLE0='Til The River Dries Up
TTITLE1=Swingin' Gate
TTITLE2=No More Cryin' (No More Blues)
TTITLE3=Beside Every Good Man
TTITLE4=Just For Me
TTITLE5=Paper Planes
TTITLE6=Baby Give Up
TTITLE7=I Wish I Knew You Better
TTITLE8=Don't Drop Your Hat
TTITLE9=When It Comes To You
TTITLE10=Fill These
EXTD=USA: Kansa 656
EXTT0=
EXTT1=
EXTT2=
EXTT3=
EXTT4=
EXTT5=
EXTT6=
EXTT7=
EXTT8=
EXTT9=
EXTT10=
PLAYORDER=
